<svg xmlns="http://www.w3.org/2000/svg" viewBox="0 0 256 256" role="img" aria-labelledby="title desc">
  <title id="title">BiliTool.Vn logo</title>
  <desc id="desc">Biểu tượng BiliTool.Vn màu xanh y khoa với em bé sơ sinh.</desc>
  <defs>
    <linearGradient id="bg" x1="28" y1="18" x2="228" y2="238" gradientUnits="userSpaceOnUse">
      <stop offset="0" stop-color="#2fb7dc"/>
      <stop offset="0.52" stop-color="#0f766e"/>
      <stop offset="1" stop-color="#0b3655"/>
    </linearGradient>
    <filter id="soft" x="-20%" y="-20%" width="140%" height="140%">
      <feDropShadow dx="0" dy="10" stdDeviation="12" flood-color="#052033" flood-opacity="0.25"/>
    </filter>
  </defs>
  <rect width="256" height="256" rx="58" fill="url(#bg)"/>
  <circle cx="198" cy="52" r="34" fill="#ffffff" opacity="0.10"/>
  <circle cx="62" cy="198" r="42" fill="#ffffff" opacity="0.08"/>
  <g filter="url(#soft)" fill="none" stroke="#ffffff" stroke-width="12" stroke-linecap="round" stroke-linejoin="round">
    <path d="M82 100c0-30 22-54 50-54s50 24 50 54v12c0 28-22 50-50 50s-50-22-50-50z"/>
    <path d="M104 70c12-20 42-24 58 0" opacity="0.95"/>
    <path d="M111 111h.1M153 111h.1"/>
    <path d="M116 133c9 8 23 8 32 0"/>
    <path d="M88 155c-22 8-34 24-34 43v7h156v-7c0-19-12-35-34-43"/>
    <path d="M98 184h68" opacity="0.9"/>
  </g>
</svg>
